<svg width="520" height="520" viewBox="0 0 520 520" fill="none" xmlns="http://www.w3.org/2000/svg">
  <rect width="520" height="520" rx="120" fill="#2A0E06"/>
  <circle cx="260" cy="260" r="190" fill="#F7B733"/>
  <path d="M132 202C162 128 251 94 328 129C400 162 435 242 412 315C391 383 320 428 250 414L132 202Z" fill="#FF6B1A"/>
  <path d="M132 202L250 414C202 405 158 375 136 330C115 288 111 242 132 202Z" fill="#FFD166"/>
  <circle cx="255" cy="206" r="23" fill="#B11226"/>
  <circle cx="315" cy="274" r="20" fill="#B11226"/>
  <circle cx="223" cy="312" r="18" fill="#B11226"/>
  <circle cx="347" cy="350" r="17" fill="#B11226"/>
  <path d="M151 215C205 236 274 232 349 165" stroke="#FFF1BD" stroke-width="18" stroke-linecap="round"/>
  <path d="M190 284C250 305 311 298 393 235" stroke="#FFF1BD" stroke-width="18" stroke-linecap="round"/>
  <text x="260" y="476" text-anchor="middle" font-family="Arial, Helvetica, sans-serif" font-size="42" font-weight="900" fill="#FFF6D6">
    Pizza's Cheddar
  </text>
</svg>